<svg xmlns="http://www.w3.org/2000/svg" viewBox="0 0 1600 900">
  <defs>
    <linearGradient id="flameGrad" x1="0%" y1="0%" x2="100%" y2="100%">
      <stop offset="0%" style="stop-color:#ff6b35;stop-opacity:1" />
      <stop offset="100%" style="stop-color:#ff3d00;stop-opacity:1" />
    </linearGradient>
    <filter id="glow" x="-20%" y="-20%" width="140%" height="140%">
      <feGaussianBlur stdDeviation="5" result="blur" />
      <feComposite in="SourceGraphic" in2="blur" operator="over" />
    </filter>
    <marker id="arrow" viewBox="0 0 10 10" refX="5" refY="5" markerWidth="6" markerHeight="6" orient="auto-start-reverse">
      <path d="M 0 0 L 10 5 L 0 10 z" fill="#ff6b35" />
    </marker>
  </defs>

  <rect width="1600" height="900" fill="#0b0b0d" rx="12"/>

  <!-- Three Planes -->
  
  <!-- Control Plane -->
  <g transform="translate(100, 100)">
    <rect width="400" height="300" rx="12" fill="#161b22" stroke="#30363d" stroke-width="2"/>
    <text x="200" y="40" text-anchor="middle" fill="#e2e8f0" font-family="Inter, sans-serif" font-size="20" font-weight="600">Control Plane</text>
    <text x="200" y="70" text-anchor="middle" fill="#8b949e" font-family="Inter, sans-serif" font-size="14">compose() / provision</text>
    <rect x="50" y="100" width="300" height="150" rx="8" fill="#0b0b0d" stroke="#334155" stroke-width="1"/>
    <text x="200" y="150" text-anchor="middle" fill="#ff6b35" font-family="monospace" font-size="12">harness.start()</text>
  </g>

  <!-- Session Plane -->
  <g transform="translate(600, 100)">
    <rect width="400" height="300" rx="12" fill="#161b22" stroke="#30363d" stroke-width="2"/>
    <text x="200" y="40" text-anchor="middle" fill="#e2e8f0" font-family="Inter, sans-serif" font-size="20" font-weight="600">Session Plane</text>
    <text x="200" y="70" text-anchor="middle" fill="#8b949e" font-family="Inter, sans-serif" font-size="14">ACP Conversation</text>
    <path d="M100 150 Q200 100 300 150 T500 150" fill="none" stroke="#ff6b35" stroke-width="2" stroke-opacity="0.3"/>
    <circle cx="150" cy="150" r="10" fill="#ff6b35" fill-opacity="0.5"/>
    <circle cx="250" cy="150" r="10" fill="#ff6b35" fill-opacity="0.5"/>
  </g>

  <!-- Observation Plane -->
  <g transform="translate(1100, 100)">
    <rect width="400" height="300" rx="12" fill="#161b22" stroke="#30363d" stroke-width="2"/>
    <text x="200" y="40" text-anchor="middle" fill="#e2e8f0" font-family="Inter, sans-serif" font-size="20" font-weight="600">Observation Plane</text>
    <text x="200" y="70" text-anchor="middle" fill="#8b949e" font-family="Inter, sans-serif" font-size="14">Materialized Collections</text>
    <rect x="50" y="100" width="300" height="20" rx="4" fill="#30363d" fill-opacity="0.5"/>
    <rect x="50" y="130" width="300" height="20" rx="4" fill="#30363d" fill-opacity="0.5"/>
    <rect x="50" y="160" width="300" height="20" rx="4" fill="#30363d" fill-opacity="0.5"/>
  </g>

  <!-- The Through-line: Durable Stream -->
  <g transform="translate(100, 550)">
    <rect width="1400" height="250" rx="12" fill="#0b0b0d" stroke="#ff6b35" stroke-width="2" stroke-opacity="0.3"/>
    
    <line x1="50" y1="150" x2="1350" y2="150" stroke="#ff6b35" stroke-width="4" stroke-dasharray="16,12"/>
    
    <!-- Arrows from Planes to Stream -->
    <path d="M200 -150 V50" fill="none" stroke="#ff6b35" stroke-width="2" marker-end="url(#arrow)"/>
    <path d="M700 -150 V50" fill="none" stroke="#ff6b35" stroke-width="2" marker-end="url(#arrow)"/>
    <path d="M1200 -150 V50" fill="none" stroke="#ff6b35" stroke-width="2" marker-end="url(#arrow)"/>
    
    <text x="210" y="0" fill="#8b949e" font-family="Inter, sans-serif" font-size="12">Approvals project</text>
    <text x="710" y="0" fill="#8b949e" font-family="Inter, sans-serif" font-size="12">Peer hops project</text>
    <text x="1210" y="0" fill="#8b949e" font-family="Inter, sans-serif" font-size="12">Dashboards subscribe</text>
  </g>
</svg>
