<svg xmlns="http://www.w3.org/2000/svg" viewBox="0 0 1600 500">
  <defs>
    <linearGradient id="flameGrad" x1="0%" y1="0%" x2="100%" y2="100%">
      <stop offset="0%" style="stop-color:#ff6b35;stop-opacity:1" />
      <stop offset="100%" style="stop-color:#ff3d00;stop-opacity:1" />
    </linearGradient>
    <filter id="glow" x="-20%" y="-20%" width="140%" height="140%">
      <feGaussianBlur stdDeviation="5" result="blur" />
      <feComposite in="SourceGraphic" in2="blur" operator="over" />
    </filter>
  </defs>

  <rect width="1600" height="500" fill="#0b0b0d" rx="12"/>

  <!-- The Durable Spine -->
  <rect x="100" y="340" width="1400" height="20" rx="10" fill="#1e293b" fill-opacity="0.3" stroke="#334155" stroke-width="1"/>
  <line x1="100" y1="350" x2="1500" y2="350" stroke="#334155" stroke-width="4" stroke-dasharray="12,8" stroke-opacity="0.5"/>
  
  <circle cx="200" cy="350" r="4" fill="url(#flameGrad)" filter="url(#glow)"/>
  <circle cx="450" cy="350" r="4" fill="url(#flameGrad)" filter="url(#glow)"/>
  <circle cx="700" cy="350" r="4" fill="url(#flameGrad)" filter="url(#glow)"/>
  <circle cx="950" cy="350" r="4" fill="url(#flameGrad)" filter="url(#glow)"/>
  <circle cx="1200" cy="350" r="4" fill="url(#flameGrad)" filter="url(#glow)"/>
  <circle cx="1450" cy="350" r="4" fill="url(#flameGrad)" filter="url(#glow)"/>

  <!-- Components -->
  <g transform="translate(150, 100)">
    <rect width="120" height="120" rx="8" fill="#161b22" stroke="#30363d" stroke-width="1"/>
    <text x="60" y="65" text-anchor="middle" fill="#8b949e" font-family="Inter, sans-serif" font-size="14">Agent A</text>
    <line x1="60" y1="120" x2="60" y2="240" stroke="#ff6b35" stroke-width="1.5" stroke-dasharray="4,4"/>
  </g>

  <g transform="translate(400, 100)">
    <rect width="120" height="120" rx="8" fill="#161b22" stroke="#30363d" stroke-width="1"/>
    <text x="60" y="65" text-anchor="middle" fill="#8b949e" font-family="Inter, sans-serif" font-size="14">Agent B</text>
    <line x1="60" y1="120" x2="60" y2="240" stroke="#ff6b35" stroke-width="1.5" stroke-dasharray="4,4"/>
  </g>

  <g transform="translate(650, 80)">
    <rect width="200" height="140" rx="8" fill="#161b22" stroke="#30363d" stroke-width="1"/>
    <rect x="20" y="20" width="160" height="10" rx="2" fill="#30363d"/>
    <rect x="20" y="40" width="100" height="60" rx="2" fill="#30363d" fill-opacity="0.5"/>
    <text x="100" y="125" text-anchor="middle" fill="#8b949e" font-family="Inter, sans-serif" font-size="12">Live Dashboard</text>
    <line x1="100" y1="140" x2="100" y2="260" stroke="#ff6b35" stroke-width="1.5" stroke-dasharray="4,4"/>
  </g>

  <g transform="translate(950, 100)">
    <rect width="140" height="120" rx="8" fill="#161b22" stroke="#30363d" stroke-width="1"/>
    <text x="70" y="70" text-anchor="middle" fill="#ff6b35" font-family="Inter, sans-serif" font-size="10">Approve?</text>
    <text x="70" y="105" text-anchor="middle" fill="#8b949e" font-family="Inter, sans-serif" font-size="12">Human Bot</text>
    <line x1="70" y1="120" x2="70" y2="240" stroke="#ff6b35" stroke-width="1.5" stroke-dasharray="4,4"/>
  </g>

  <g transform="translate(1200, 120)">
    <rect width="160" height="80" rx="8" fill="#161b22" stroke="#30363d" stroke-width="1"/>
    <text x="80" y="45" text-anchor="middle" fill="#8b949e" font-family="Inter, sans-serif" font-size="14">Webhook</text>
    <line x1="80" y1="80" x2="80" y2="220" stroke="#ff6b35" stroke-width="1.5" stroke-dasharray="4,4"/>
  </g>

  <text x="800" y="400" text-anchor="middle" fill="#ff6b35" font-family="Inter, sans-serif" font-size="18" font-weight="600" letter-spacing="2">DURABLE STATE SPINE</text>

  <g transform="translate(1500, 50) scale(0.6)">
    <path d="M0 50 Q0 0 25 0 Q50 0 50 50 Q50 100 25 100 Q0 100 0 50 Z" fill="url(#flameGrad)"/>
    <path d="M10 50 Q10 20 25 20 Q40 20 40 50 Q40 80 25 80 Q10 80 10 50 Z" fill="#0b0b0d"/>
  </g>
</svg>
